<?xml version="1.0" encoding="iso-8859-1"?>
<!-- Generator: Adobe Illustrator 19.0.0, SVG Export Plug-In . SVG Version: 6.00 Build 0)  -->
<svg version="1.1" id="Layer_1" xmlns="http://www.w3.org/2000/svg" xmlns:xlink="http://www.w3.org/1999/xlink" x="0px" y="0px"
	 viewBox="0 0 512 512" style="enable-background:new 0 0 512 512;" xml:space="preserve">
<path style="fill:#7422fb;" d="M256.001,511.999C396.999,511.999,512,397,512,255.999c0-141-115.001-255.998-255.999-255.998
	C115,0.001,0,114.999,0,255.999C0,397,115,511.999,256.001,511.999z"/>
<g>
	<path style="fill:#FFFFFF;" d="M279.385,72.482c12.906,8.073,21.518,22.64,21.518,39.26l-0.007,0.77h-89.79l-0.008-0.77
		c0-17.081,9.096-31.981,22.592-39.909c0.373,0.53,0.758,1.049,1.163,1.554c-3.104-4.269-4.93-9.493-4.93-15.13
		c0-14.457,12.022-26.183,26.858-26.183c14.841,0,26.858,11.726,26.858,26.183c0,5.523-1.751,10.644-4.741,14.866L279.385,72.482
		L279.385,72.482z M256.619,42.06L256.619,42.06c-7.918,0-14.334,6.288-14.334,14.042c0,7.75,6.416,14.037,14.334,14.037
		c7.917,0,14.331-6.286,14.331-14.037C270.951,48.347,264.536,42.06,256.619,42.06z"/>
	<path style="fill:#FFFFFF;" d="M291.426,387.03c0.022,0.541,0.037,1.08,0.037,1.622c0,21.128-17.018,38.254-38.012,38.254
		c-20.995,0-38.015-17.126-38.015-38.254c0-0.542,0.017-1.081,0.039-1.622H291.426z"/>
</g>
<path style="fill:#FBAB08;" d="M135.97,330.834h240.055c18.187,0,33.064,15.09,33.064,33.534v22.662H102.905v-22.662
	C102.905,345.924,117.783,330.834,135.97,330.834L135.97,330.834z"/>
<g>
	<path style="fill:#FFBA1B;" d="M408.228,371.903c0.562,1.221,0.861,2.493,0.861,3.797v11.329H102.905V375.7
		c0-1.304,0.297-2.576,0.859-3.797H408.228z"/>
	<path style="fill:#FFBA1B;" d="M210.804,112.61c0,0-50.303,14.495-47.388,104.606c2.915,90.108-24.604,113.618-24.604,113.618
		h117.189h117.186c0,0-27.515-23.51-24.602-113.618c2.913-90.111-47.388-104.606-47.388-104.606l-45.197-0.099L210.804,112.61z"/>
</g>
<path style="fill:#FBAB08;" d="M373.187,330.834c0,0-27.515-23.51-24.602-113.618c2.913-90.111-47.388-104.607-47.388-104.607
	l-12.331-0.027c3.296,1.24,49.766,19.958,51.27,89.9C341.696,274.993,338.145,304.893,373.187,330.834z"/>
<g>
	<path style="fill:#ECF0F1;" d="M278.898,73.123c2.991-4.222,4.741-9.344,4.741-14.866c0-14.457-12.017-26.183-26.858-26.183
		c-1.071,0-2.128,0.063-3.167,0.181c13.921,0.982,24.887,12.3,24.887,26.114c0,5.52-1.748,10.644-4.741,14.864l0.489-0.641
		c12.905,8.076,21.516,22.64,21.516,39.263l-0.006,0.658h5.137l0.007-0.77c0-16.62-8.612-31.187-21.518-39.26L278.898,73.123
		L278.898,73.123z"/>
	<path style="fill:#ECF0F1;" d="M291.426,387.03l-5.032-0.001c-0.185,21.52-16.362,38.901-36.295,38.901
		c-3.785,0-7.432-0.626-10.861-1.788c4.39,1.782,9.187,2.764,14.212,2.764c20.995,0,38.012-17.126,38.012-38.254L291.426,387.03z"/>
</g>
<g>
	<path style="fill:#FFFFFF;" d="M81.206,304.825c-5.023-15.639-7.723-32.219-7.723-49.391s2.701-33.75,7.723-49.388l3.946,1.115
		c-4.907,15.284-7.546,31.492-7.546,48.273c0,16.784,2.639,32.991,7.546,48.274L81.206,304.825z M99.065,211.093L99.065,211.093
		l3.949,1.116c-4.393,13.685-6.759,28.197-6.759,43.225c0,15.029,2.365,29.541,6.759,43.227l-3.949,1.116
		c-4.506-14.04-6.931-28.925-6.931-44.343C92.134,240.019,94.559,225.132,99.065,211.093L99.065,211.093z M115.082,215.619
		L115.082,215.619l3.945,1.114c-3.935,12.254-6.049,25.248-6.049,38.702c0,13.457,2.115,26.448,6.049,38.702l-3.945,1.116
		c-4.049-12.608-6.227-25.975-6.227-39.818C108.855,241.591,111.033,228.224,115.082,215.619z M129.441,219.676L129.441,219.676
		l3.948,1.115c-3.522,10.969-5.416,22.598-5.416,34.643c0,12.047,1.894,23.674,5.416,34.645l-3.948,1.116
		c-3.637-11.324-5.59-23.329-5.59-35.761C123.851,243.002,125.806,230.997,129.441,219.676z"/>
	<path style="fill:#FFFFFF;" d="M430.792,206.046c5.021,15.639,7.722,32.216,7.722,49.388s-2.701,33.752-7.722,49.391l-3.948-1.116
		c4.906-15.284,7.548-31.49,7.548-48.274c0-16.782-2.642-32.99-7.548-48.273L430.792,206.046z M412.931,211.093L412.931,211.093
		l-3.948,1.116c4.394,13.685,6.759,28.197,6.759,43.225c0,15.029-2.363,29.541-6.759,43.227l3.948,1.116
		c4.508-14.04,6.933-28.925,6.933-44.343C419.864,240.019,417.438,225.132,412.931,211.093L412.931,211.093z M396.915,215.619
		L396.915,215.619l-3.945,1.114c3.935,12.254,6.05,25.248,6.05,38.702c0,13.457-2.116,26.448-6.05,38.702l3.945,1.116
		c4.049-12.608,6.227-25.975,6.227-39.818C403.143,241.591,400.964,228.224,396.915,215.619z M382.556,219.676L382.556,219.676
		l-3.946,1.115c3.523,10.969,5.416,22.598,5.416,34.643c0,12.047-1.893,23.674-5.416,34.645l3.946,1.116
		c3.637-11.324,5.591-23.329,5.591-35.761C388.147,243.002,386.191,230.997,382.556,219.676z"/>
</g>
<g>
</g>
<g>
</g>
<g>
</g>
<g>
</g>
<g>
</g>
<g>
</g>
<g>
</g>
<g>
</g>
<g>
</g>
<g>
</g>
<g>
</g>
<g>
</g>
<g>
</g>
<g>
</g>
<g>
</g>
</svg>
