<?xml version="1.0" encoding="iso-8859-1"?>
<!-- Generator: Adobe Illustrator 19.0.0, SVG Export Plug-In . SVG Version: 6.00 Build 0)  -->
<svg version="1.1" id="Layer_1" xmlns="http://www.w3.org/2000/svg" xmlns:xlink="http://www.w3.org/1999/xlink" x="0px" y="0px"
	 viewBox="0 0 512 512" style="enable-background:new 0 0 512 512;" xml:space="preserve">
<path style="fill:#7422fb;" d="M255.999,512C397,512,512,397,512,256.001C512,115,397,0,255.999,0C115,0,0,115,0,256.001
	C0,397,115,512,255.999,512z"/>
<path style="fill:#666666;" d="M21.748,248.542l75.663,34.349l71.223-32.332l-75.663-34.347l-71.223,32.332V248.542z"/>
<path style="fill:#F0B97D;" d="M80.119,327.502c10.05,0,20.095,0,30.144,0l2.441,25.406l7.377,5.415l43.892,13.915
	c0,0,5.757,3.166,7.448,12.021c0.741,3.883,2.311,81.596,3.955,114.784c-64.366-21.338-117.396-67.53-147.728-127.199l42.952-13.712
	l7.078-5.221l2.441-25.406V327.502z"/>
<path style="fill:#FFFFFF;" d="M117.432,366.086c-7.274,8.497-31.567,12.166-44.948-2.353l22.705,67.587L117.432,366.086z"/>
<path style="fill:#FED198;" d="M57.551,288.915c-9.452-1.676-1.393,26.557,5.51,22.348l3.706,10.881
	c3.34,9.805,11.758,18.73,18.168,25.797c2.5,2.756,17.822,2.71,20.298,0.106c7.097-7.463,15.529-15.846,18.695-25.955l3.391-10.828
	c6.917,4.205,14.958-24.024,5.51-22.348c0.655-21.976-14.885-43.299-37.637-43.398c-22.752,0.099-38.294,21.422-37.639,43.398
	H57.551z"/>
<path style="fill:#FF5B61;" d="M70.601,358.129l-42.952,13.712c30.427,59.863,83.7,106.147,148.341,127.398
	c-1.852-21.696-3.735-110.621-4.568-114.984c-1.691-8.855-7.448-12.021-7.448-12.021l-43.892-13.915l-24.893,72.998l-24.588-73.189
	V358.129z"/>
<path style="fill:#666666;" d="M122.326,249.845c2.672-0.313,12.318,8.502,13.476,18.706c1.16,10.204-1.063,20.492-1.063,20.492
	c-6.789-0.331-4.65,10.047-6.127,11.688l-1.914,0.042l-0.714-6.963c-8.456-5.3,3.336-26.235-5.12-28.072
	c-14.477,11.924-35.95,16.336-54.687,13.275c-5.259,0.699,2.392,7.344,0.174,14.993c-1.636,2.855-0.659,7.358-0.659,7.358
	l-2.445,0.304c0,0-1.548-12.909-6.264-12.859c-1.144-5.949-1.618-9.498-1.299-14.768c1.612-26.974,37.879-42.333,66.646-24.198
	L122.326,249.845z"/>
<path style="fill:#807D7D;" d="M55.718,251.327c17.158-13.068,64.549-13.324,79.859-0.119l0.807,21.321
	c-26.716-7.929-54.283-7.203-81.599,0.814L55.718,251.327z"/>
<path style="fill:#FFFFFF;" d="M41.052,240.563l0.117,37.797v1.169h-2.214v-1.169v-37.079
	C39.032,239.114,40.902,238.817,41.052,240.563z"/>
<path style="fill:#FF5B61;" d="M35.992,285.18c0,10.067-2.114,18.73-2.231,19.308c-0.121,0.578,1.916,2.478,2.308,0.578
	c0.388-1.898-0.04,0.04,1.759,0.163c1.773,0.123,2.141-0.756,2.154-0.78c0.009,0.024,0.379,0.906,2.15,0.78
	c1.799-0.123,1.371-2.064,1.762-0.163c0.392,1.898,2.428,0,2.308-0.578c-0.115-0.575-2.227-9.24-2.227-19.308
	c-0.095-3.856-1.605-5.673-3.991-6.229c-2.388,0.556-3.898,2.375-3.991,6.229H35.992z"/>
<path style="fill:#807D7D;" d="M40.029,278.949c3.958,0,4.072,2.511,3.872,4.84c-0.871-0.756-2.28-1.25-3.872-1.25
	c-1.59,0-2.999,0.492-3.872,1.25C36.018,281.088,36.073,278.949,40.029,278.949z"/>
<g>
	<path style="fill:#666666;" d="M358.801,245.546l69.122,31.375l65.06-29.536l-69.122-31.375L358.801,245.546z"/>
	<path style="fill:#666666;" d="M378.072,354.674c6.795-11.421,17.504-24.677,6.628-44.833
		c-16.009-69.99,57.762-84.181,68.919-55.297c18.148,6.844,17.665,44.52,8.332,64.233c-0.415,8.116-8.855,15.189,6.392,36.124
		l1.096-0.243h-0.002c-19.775,5.733-70.462,3.091-91.366,0.013L378.072,354.674z"/>
</g>
<path style="fill:#F0B97D;" d="M411.982,339.922c-0.679,12.534-5.126,17.268-11.295,20.562c-3.135,2.769-30.68,6.088-34.402,16.148
	c-0.792,2.132-3.173,68.72-5.435,112.779c52.74-23.709,95.99-64.754,122.516-115.877c-7.918-8.422-31-10.435-33.719-12.706
	c-6.035-3.376-10.369-8.341-11.042-20.911c0,0-9.016,6.994-14.622,5.92c-5.607-1.076-12.001-5.92-12.001-5.92V339.922z"/>
<path style="fill:#FED198;" d="M397.457,319.364c5.561,11.913,7.618,16.565,14.528,21.918c0,0,6.392,4.932,11.999,6.032
	c5.605,1.098,14.62-6.032,14.62-6.032c6.908-5.353,8.965-10.006,14.528-21.918c1.365,0.725,2.787,1.711,3.894,0.443
	c1.109-1.268,6.379-17.751,5.428-19.971c-0.948-2.222-1.874-0.805-3.285,0.201c0.073-0.478-1.118,5.953-1.098,4.976
	c0.13-7.779-5.336-9.011-7.051-29.598c-25.212,25.014-48.762,13.538-56.969,15.211c-2.379,0.485-3.076,6.575-2.637,9.41
	c-8.897-6.352,1.914,19.513,2.141,19.771c1.109,1.268,2.531,0.282,3.896-0.443H397.457z"/>
<path style="fill:#FF5B61;" d="M400.682,360.482c-10.411,4.361-26.619,4.555-34.731,15.163
	c-1.535,2.009-8.833,73.633-14.267,117.665c56.885-22.939,103.629-65.719,131.679-119.767c-8.561-9.644-25.47-8.766-33.531-13.097
	l-23.653,48.352l-25.497-48.319V360.482z"/>
<path style="fill:#807D7D;" d="M387.572,248.752c17.811-11.941,61.175-11.428,77.068,0.637l1.64,19.974
	c-27.726-7.243-52.186-6.872-80.538,0.454l1.83-21.063V248.752z"/>
<g>
	<path style="fill:#FFFFFF;" d="M411.843,381.602c7.362,2.622,19.881,2.635,27.644-0.011l-13.308,27.21L411.843,381.602z"/>
	<path style="fill:#FFFFFF;" d="M374.319,238.766l0.112,34.032v1.054h-2.024v-1.054v-33.386c0.073-1.953,1.777-2.222,1.914-0.648
		L374.319,238.766z"/>
</g>
<path style="fill:#FF5B61;" d="M369.698,279.013c0,9.196-1.931,17.109-2.037,17.639c-0.108,0.527,1.751,2.26,2.108,0.527
	c0.359-1.733-0.035,0.037,1.61,0.15c1.616,0.112,1.956-0.692,1.965-0.717c0.009,0.024,0.348,0.827,1.969,0.717
	c1.64-0.112,1.248-1.883,1.61-0.15c0.355,1.733,2.209,0,2.106-0.527c-0.108-0.529-2.035-8.44-2.035-17.639
	c-0.086-3.519-1.468-5.184-3.649-5.691C371.16,273.829,369.784,275.494,369.698,279.013z"/>
<path style="fill:#807D7D;" d="M373.342,273.32c3.614,0,3.722,2.295,3.537,4.421c-0.794-0.692-2.084-1.142-3.537-1.142
	c-1.453,0-2.738,0.45-3.537,1.142C369.678,275.274,369.729,273.32,373.342,273.32z"/>
<g>
	<path style="fill:#666666;" d="M119.667,125.243l145.34,65.98l136.81-62.106l-145.34-65.98L119.667,125.243z"/>
	<path style="fill:#666666;" d="M160.188,354.72c14.29-24.017,36.805-51.895,13.937-94.274
		C140.463,113.273,295.589,83.433,319.044,144.172c38.166,14.393,37.151,93.615,17.522,135.07
		c-0.873,17.059-18.613,31.937,13.441,75.952l2.308-0.505l-0.002,0.002c-41.581,12.047-148.163,6.5-192.123,0.029H160.188z"/>
</g>
<path style="fill:#F0B97D;" d="M231.494,323.703c-1.429,26.357-10.784,36.307-23.755,43.237c-6.599,5.83-56.267,7.395-70.782,30.837
	c-1.594,2.575-12.997,44.145-18.551,74.138C158.146,497.289,205.352,512,255.997,512c51.858,0,100.102-15.434,140.421-41.938
	c-5.402-31.28-10.136-69.051-12.14-72.285c-15.328-24.758-67.519-25.045-73.589-30.105c-12.687-7.1-21.799-17.544-23.215-43.969
	c0,0-18.962,14.706-30.751,12.442C244.937,333.882,231.494,323.703,231.494,323.703z"/>
<path style="fill:#FED198;" d="M200.944,280.475c11.697,25.047,16.023,34.83,30.55,46.088c0,0,13.443,10.376,25.23,12.684
	c11.789,2.308,30.751-12.684,30.751-12.684c14.528-11.258,18.851-21.039,30.548-46.088c2.866,1.526,5.865,3.596,8.191,0.928
	c2.328-2.668,13.408-37.321,11.414-41.995c-1.995-4.676-3.938-1.696-6.908,0.421c0.157-1.008-2.346,12.523-2.311,10.466
	c0.28-16.355-11.216-18.955-14.821-62.236c-53.015,52.596-102.538,28.462-119.793,31.981c-5.001,1.021-6.467,13.822-5.545,19.788
	c-18.712-13.355,4.028,41.03,4.504,41.574C195.084,284.071,198.078,282.001,200.944,280.475z"/>
<path style="fill:#0E7886;" d="M207.735,366.926c-17.819,9.52-51.858-1.587-72.182,31.236c-1.237,2-10.103,41.823-18.847,72.643
	c40.088,26.05,87.918,41.193,139.29,41.193c54.828,0,105.625-17.244,147.279-46.595c-8.491-30.486-17.187-64.707-18.995-67.629
	c-20.377-32.918-55.352-21.341-73.192-30.918L261.35,468.529l-53.613-101.605L207.735,366.926z"/>
<path style="fill:#807D7D;" d="M180.168,131.986c37.449-25.104,128.639-24.028,162.055,1.347l3.451,41.998
	c-58.307-15.229-109.741-14.45-169.353,0.948l3.85-44.291L180.168,131.986z"/>
<path style="fill:#20D0C2;" d="M231.208,411.338c15.471,5.519,41.799,5.552,58.128-0.02l-27.99,57.218l-30.14-57.198H231.208z"/>
<path style="fill:#FFFFFF;" d="M152.299,110.989l0.234,71.562v2.216h-4.258v-2.216v-70.206c0.146-4.101,3.737-4.665,4.024-1.358
	V110.989z"/>
<path style="fill:#FF5B61;" d="M142.576,195.617c0,19.339-4.057,35.981-4.282,37.09c-0.227,1.111,3.68,4.756,4.434,1.111
	c0.752-3.649-0.075,0.077,3.382,0.315c3.402,0.234,4.112-1.451,4.134-1.506c0.022,0.055,0.734,1.74,4.134,1.506
	c3.457-0.236,2.63-3.962,3.384-0.315c0.752,3.645,4.657,0,4.434-1.111c-0.227-1.109-4.284-17.751-4.284-37.09
	c-0.181-7.404-3.082-10.896-7.668-11.963C145.658,184.721,142.759,188.213,142.576,195.617z"/>
<path style="fill:#807D7D;" d="M150.242,183.654c7.6,0,7.823,4.826,7.435,9.296c-1.673-1.455-4.379-2.399-7.435-2.399
	c-3.056,0-5.761,0.946-7.435,2.399C142.538,187.759,142.644,183.654,150.242,183.654z"/>
<g>
</g>
<g>
</g>
<g>
</g>
<g>
</g>
<g>
</g>
<g>
</g>
<g>
</g>
<g>
</g>
<g>
</g>
<g>
</g>
<g>
</g>
<g>
</g>
<g>
</g>
<g>
</g>
<g>
</g>
</svg>
