<?xml version="1.0" encoding="iso-8859-1"?>
<!-- Generator: Adobe Illustrator 19.0.0, SVG Export Plug-In . SVG Version: 6.00 Build 0)  -->
<svg version="1.1" id="Layer_1" xmlns="http://www.w3.org/2000/svg" xmlns:xlink="http://www.w3.org/1999/xlink" x="0px" y="0px"
	 viewBox="0 0 512 512" style="enable-background:new 0 0 512 512;" xml:space="preserve">
<path style="fill:#04bf58;" d="M256.001,0C397.385,0,512,114.616,512,256.001S397.385,512,256.001,512
	C114.614,512,0,397.386,0,256.001S114.614,0,256.001,0z"/>
<path style="fill:#807D7D;" d="M14.088,426.684h483.825v16.576c0,9.115-7.457,16.573-16.575,16.573H30.663
	c-9.115,0-16.575-7.458-16.575-16.573L14.088,426.684L14.088,426.684z"/>
<path style="fill:#666666;" d="M189.713,426.684H322.29v4.873c0,2.681-2.194,4.872-4.874,4.872H194.583
	c-2.681,0-4.871-2.191-4.871-4.872V426.684z"/>
<path style="fill:#807D7D;" d="M60.754,164.447h390.495c4.768,0,8.669,3.9,8.669,8.669v239.253c0,4.768-3.9,8.669-8.669,8.669
	H60.754c-4.768,0-8.669-3.9-8.669-8.669V173.116C52.086,168.348,55.986,164.447,60.754,164.447z"/>
<path style="fill:#FFFFFF;" d="M70.308,181.856h371.475v226.389H70.308V181.856z"/>
<path style="fill:#666666;" d="M104.02,421.038h27.009v5.646H104.02V421.038z M380.971,421.038L380.971,421.038h27.009v5.646
	h-27.009V421.038z"/>
<path style="fill:#ECF0F1;" d="M139.419,188.943c16.075,0,30.626,6.515,41.161,17.05c10.532,10.532,17.047,25.085,17.047,41.16
	c0,16.074-6.515,30.628-17.047,41.161c-10.535,10.532-25.086,17.047-41.161,17.047s-30.626-6.515-41.16-17.047
	c-10.535-10.533-17.05-25.087-17.05-41.161c0-16.075,6.515-30.628,17.05-41.16C108.792,195.458,123.344,188.943,139.419,188.943z
	 M181.117,279.315L181.117,279.315c-3.671-1.734-8.382-3.126-13.731-4.18c-0.487,1.041-1.005,2.069-1.55,3.085
	c-4.331,8.058-10.477,15.287-18.434,20.99c11.346-1.724,21.503-7.071,29.253-14.822
	C178.249,282.797,179.739,281.102,181.117,279.315L181.117,279.315z M131.436,299.21L131.436,299.21
	c-7.957-5.703-14.103-12.932-18.434-20.989c-0.542-1.01-1.055-2.032-1.541-3.066c-5.34,1.05-10.051,2.44-13.738,4.165
	c1.378,1.783,2.868,3.477,4.459,5.069C109.933,292.138,120.089,297.485,131.436,299.21L131.436,299.21z M94.54,274.715
	L94.54,274.715c3.962-1.963,9.026-3.544,14.757-4.746c-2.36-6.434-3.686-13.21-3.98-20.022H86.832
	C87.305,258.996,90.063,267.442,94.54,274.715L94.54,274.715z M86.831,244.396L86.831,244.396h18.477
	c0.292-7.437,1.818-14.828,4.576-21.775c-5.545-1.127-10.491-2.606-14.448-4.437C90.425,225.777,87.328,234.744,86.831,244.396
	L86.831,244.396z M98.8,213.635L98.8,213.635c3.688,1.578,8.27,2.853,13.402,3.824c0.295-0.585,0.599-1.165,0.912-1.74
	c4.312-7.924,10.393-15.021,18.238-20.613c-11.313,1.739-21.438,7.076-29.172,14.809C100.996,211.1,99.868,212.341,98.8,213.635z
	 M147.484,195.107L147.484,195.107c7.847,5.592,13.928,12.689,18.24,20.613c0.316,0.582,0.622,1.168,0.921,1.759
	c5.141-0.97,9.724-2.25,13.399-3.837c-1.072-1.295-2.201-2.538-3.389-3.726C168.924,202.183,158.798,196.846,147.484,195.107
	L147.484,195.107z M183.411,218.197L183.411,218.197c-3.942,1.84-8.889,3.323-14.448,4.45c2.752,6.942,4.275,14.321,4.567,21.749
	h18.478C191.509,234.749,188.415,225.786,183.411,218.197L183.411,218.197z M192.006,249.947L192.006,249.947h-18.486
	c-0.292,6.804-1.616,13.57-3.971,19.998c5.745,1.2,10.813,2.788,14.755,4.761C188.777,267.434,191.532,258.992,192.006,249.947
	L192.006,249.947z M142.194,198.203L142.194,198.203v21.551c6.449-0.096,12.823-0.546,18.698-1.347l-0.024-0.042
	C156.577,210.479,150.351,203.492,142.194,198.203z M142.194,225.305L142.194,225.305v19.091h25.804
	c-0.305-7.114-1.839-14.173-4.604-20.767C156.753,224.635,149.501,225.194,142.194,225.305z M142.194,249.947L142.194,249.947
	v17.218c7.536,0.114,15.013,0.705,21.82,1.773c2.343-6.084,3.667-12.516,3.971-18.991H142.194z M142.194,272.716L142.194,272.716
	v23.358c8.21-5.38,14.466-12.482,18.765-20.477c0.253-0.47,0.499-0.945,0.739-1.422
	C155.601,273.303,148.938,272.818,142.194,272.716z M136.644,296.074L136.644,296.074v-23.356c-6.737,0.109-13.394,0.6-19.494,1.476
	c0.236,0.47,0.48,0.938,0.728,1.403C122.177,283.594,128.434,290.694,136.644,296.074z M136.644,267.169L136.644,267.169v-17.223
	h-25.791c0.304,6.482,1.633,12.925,3.981,19.013C121.645,267.886,129.119,267.291,136.644,267.169z M136.644,244.396
	L136.644,244.396V225.3c-7.298-0.116-14.547-0.68-21.191-1.694c-2.773,6.599-4.308,13.668-4.612,20.79H136.644z M136.644,219.752
	L136.644,219.752v-21.549c-8.158,5.289-14.383,12.276-18.674,20.161l-0.014,0.026C123.834,219.194,130.202,219.647,136.644,219.752z
	"/>
<path style="fill:#FF5B61;" d="M93.471,303.322h163.425v6.126c-7.737,10.968-6.461,23.165,0,32.304v6.13H93.471
	C67.94,347.882,67.94,303.323,93.471,303.322L93.471,303.322z"/>
<path style="fill:#FFFFFF;" d="M256.896,341.752c-6.596-10.767-7.095-21.535,0-32.304H93.47c-7.684,0-13.988,7.282-13.988,16.154
	c0,8.872,6.304,16.15,13.988,16.15H256.896z"/>
<g>
	<path style="fill:#DFE1E3;" d="M255.33,312.05c0.471-0.865,0.994-1.734,1.565-2.602H93.469c-15.628,0-20.012,24.91-4.248,31.529
		c-10.764-5.827-6.745-25.685,4.552-28.928H255.33z"/>
	<path style="fill:#DFE1E3;" d="M253.715,315.127H82.853c0.315-0.427,0.651-0.833,1.001-1.22h170.414
		C254.072,314.312,253.887,314.719,253.715,315.127L253.715,315.127z M81.424,317.425L81.424,317.425
		c-0.203,0.397-0.394,0.803-0.567,1.219h171.635c0.11-0.407,0.231-0.813,0.362-1.219H81.424z M80.08,320.944L80.08,320.944
		c-0.106,0.401-0.198,0.807-0.277,1.22h171.979c0.054-0.407,0.116-0.813,0.19-1.22H80.08z M79.517,324.463L79.517,324.463
		c-0.025,0.377-0.035,0.757-0.035,1.138l0.001,0.083h172.08c-0.001-0.405,0.006-0.812,0.022-1.22L79.517,324.463L79.517,324.463z
		 M79.633,327.981L79.633,327.981c0.054,0.413,0.12,0.819,0.2,1.22H251.82c-0.058-0.403-0.105-0.812-0.144-1.22H79.633z
		 M80.454,331.502L80.454,331.502c0.143,0.414,0.303,0.819,0.474,1.219h171.632c-0.114-0.405-0.217-0.811-0.312-1.219H80.454z
		 M82.129,335.02L82.129,335.02c0.266,0.422,0.547,0.83,0.845,1.22h170.827c-0.172-0.404-0.336-0.811-0.49-1.22H82.129z
		 M85.128,338.538L85.128,338.538c0.52,0.449,1.068,0.857,1.639,1.22h168.835c-0.24-0.401-0.47-0.807-0.692-1.22H85.128
		L85.128,338.538z"/>
</g>
<path style="fill:#20D0C2;" d="M282.751,347.882H81.763v8.3c9.516,14.857,7.946,31.38,0,43.763v8.301h200.987
	C314.151,408.245,314.151,347.882,282.751,347.882L282.751,347.882z"/>
<path style="fill:#FFFFFF;" d="M81.763,399.944c8.112-14.587,8.725-29.175,0-43.763h200.987c9.451,0,17.206,9.864,17.206,21.884
	c0,12.017-7.755,21.879-17.206,21.879H81.763z"/>
<g>
	<path style="fill:#DFE1E3;" d="M83.689,359.707c-0.581-1.175-1.222-2.35-1.926-3.526h200.987c19.223,0,24.614,33.744,5.225,42.713
		c13.239-7.895,8.296-34.795-5.598-39.188H83.689z"/>
	<path style="fill:#DFE1E3;" d="M85.677,363.873H295.81c-0.388-0.578-0.8-1.13-1.233-1.654H84.998
		C85.236,362.768,85.463,363.321,85.677,363.873z M297.567,366.987L297.567,366.987c0.25,0.536,0.483,1.086,0.699,1.652H87.181
		c-0.135-0.553-0.285-1.102-0.448-1.652H297.567z M299.22,371.753L299.22,371.753c0.13,0.545,0.243,1.095,0.34,1.653H88.052
		c-0.065-0.551-0.143-1.1-0.231-1.653H299.22z M299.913,376.52L299.913,376.52c0.029,0.512,0.044,1.026,0.044,1.544v0.11H88.323
		c0.004-0.549-0.007-1.101-0.028-1.654H299.913L299.913,376.52z M299.767,381.288L299.767,381.288
		c-0.065,0.556-0.146,1.108-0.244,1.653H88.007c0.07-0.548,0.129-1.101,0.174-1.653H299.767L299.767,381.288z M298.76,386.056
		L298.76,386.056c-0.177,0.562-0.37,1.112-0.581,1.65H87.097c0.14-0.548,0.269-1.097,0.383-1.65H298.76L298.76,386.056z
		 M296.7,390.822L296.7,390.822c-0.327,0.573-0.672,1.125-1.038,1.651H85.569c0.213-0.546,0.414-1.096,0.604-1.651H296.7z
		 M293.012,395.589L293.012,395.589c-0.639,0.607-1.312,1.161-2.014,1.653H83.359c0.294-0.546,0.578-1.095,0.849-1.653H293.012z"/>
</g>
<path style="fill:#FBB429;" d="M236.072,264.887h-121.48v5.287c5.752,9.46,4.803,19.978,0,27.861v5.287h121.48
	C255.051,303.321,255.051,264.886,236.072,264.887L236.072,264.887z"/>
<path style="fill:#FFFFFF;" d="M114.592,298.034c4.904-9.286,5.274-18.574,0-27.861h121.48c5.713,0,10.4,6.279,10.4,13.931
	c0,7.653-4.687,13.931-10.4,13.931L114.592,298.034L114.592,298.034z"/>
<g>
	<path style="fill:#DFE1E3;" d="M115.755,272.417c-0.351-0.747-0.738-1.496-1.163-2.243h121.48c11.618,0,14.877,21.482,3.158,27.194
		c8.004-5.026,5.016-22.154-3.382-24.951H115.755z"/>
	<path style="fill:#DFE1E3;" d="M116.957,275.069h127.01c-0.236-0.369-0.484-0.718-0.747-1.053H116.546
		C116.692,274.366,116.829,274.716,116.957,275.069L116.957,275.069z M245.026,277.053L245.026,277.053
		c0.153,0.342,0.295,0.692,0.424,1.05H117.865c-0.08-0.35-0.172-0.7-0.269-1.05H245.026L245.026,277.053z M246.027,280.088
		L246.027,280.088c0.079,0.344,0.146,0.694,0.205,1.05H118.393c-0.039-0.35-0.086-0.7-0.139-1.05H246.027L246.027,280.088z
		 M246.445,283.121L246.445,283.121c0.019,0.327,0.027,0.654,0.027,0.983l-0.001,0.071H118.556c0.004-0.35-0.002-0.701-0.015-1.054
		H246.445z M246.358,286.156L246.358,286.156c-0.039,0.356-0.088,0.706-0.15,1.054H118.366c0.041-0.35,0.077-0.7,0.105-1.054
		H246.358L246.358,286.156z M245.748,289.193L245.748,289.193c-0.106,0.357-0.225,0.707-0.351,1.05H117.816
		c0.084-0.349,0.161-0.699,0.232-1.05H245.748L245.748,289.193z M244.504,292.228L244.504,292.228
		c-0.198,0.364-0.407,0.714-0.627,1.05H116.894c0.127-0.348,0.249-0.698,0.363-1.05H244.504z M242.273,295.262L242.273,295.262
		c-0.386,0.388-0.792,0.739-1.218,1.053h-125.5c0.178-0.348,0.349-0.698,0.513-1.053H242.273z"/>
</g>
<path style="fill:#15BDB1;" d="M393.987,102.079H261.705v193.942h132.281c10.881,0,19.781-9.126,19.781-20.28v-153.38
	C413.767,111.204,404.868,102.079,393.987,102.079L393.987,102.079z"/>
<path style="fill:#FFFFFF;" d="M388.476,95.424H261.705v193.942h126.771c10.426,0,18.956-8.746,18.956-19.434V114.861
	C407.431,104.169,398.902,95.424,388.476,95.424z"/>
<path style="fill:#20D0C2;" d="M393.987,77.359H261.705v193.942h152.062V97.64C413.767,86.486,404.868,77.36,393.987,77.359
	L393.987,77.359z"/>
<path style="fill:#15BDB1;" d="M396.992,271.301h16.775V97.64c0-10.108-7.307-18.55-16.775-20.046V271.301z"/>
<path style="fill:#DFE1E3;" d="M399.778,285.508H261.705v1.532h135.731C398.255,286.586,399.036,286.075,399.778,285.508z
	 M261.705,273.862L261.705,273.862v1.535h144.956c0.146-0.504,0.271-1.016,0.377-1.535H261.705z M261.705,277.745L261.705,277.745
	v1.532h143.373c0.269-0.499,0.519-1.008,0.743-1.532H261.705z M261.705,281.628L261.705,281.628v1.532h140.626
	c0.443-0.489,0.864-1.001,1.257-1.532H261.705z"/>
<path style="fill:#FFFFFF;" d="M362.099,240.167h-49.605v3.013h49.605V240.167z M352.674,245.39L352.674,245.39h-30.753v3.014
	h30.753V245.39z"/>
<path style="fill:#FED198;" d="M417.987,198.866l-18.035-5.204l-25.994,5.738c-1.246,3.408,2.88,6.761,6.246,7.057l19.748-1.549
	l13.815,5.769v2.033l-20.602-4.948l-25.533,7.465c0.407,10.42,7.171,7.743,24.024,3.528l22.111,7.683v2.646l-16.775-3.586
	l-21.113,5.142c-0.244,10.456,7.533,7.289,21.113,5.779l16.775,3.83v4.233l-16.695-1.034l-16.197,4.711
	c-2.587,1.178-2.058,6.15,1.61,7.122l14.507-1.654l16.572,2.176l0.203,16.365c1.383,10.566-5.297,21.186-15.093,23.098
	l-14.801,0.756l-4.373,26.613h36.468l-2.545-32.38c5.515-12.819,16.668-29.468,9.952-43.777c3.473-5.831,2.257-11.226-0.449-14.393
	c2.539-3.638,5.921-9.931,0.365-14.592C422.876,207.743,425.698,204.505,417.987,198.866L417.987,198.866z"/>
<path style="fill:#F0B97D;" d="M383.896,296.021l-4.396,26.614l14.048-27.107L383.896,296.021z"/>
<path style="fill:#FBB429;" d="M422.969,322.398l6.843,85.847h-66.236l9.628-85.847H422.969L422.969,322.398z"/>
<g>
	<path style="fill:#ECF0F1;" d="M420.688,316.283h-44.476v6.352h44.476V316.283z"/>
	<path style="fill:#ECF0F1;" d="M417.65,327.967c1.727,0,3.125,1.399,3.125,3.127c0,1.726-1.398,3.124-3.125,3.124
		c-1.726,0-3.126-1.398-3.126-3.124C414.524,329.366,415.924,327.967,417.65,327.967z"/>
	<path style="fill:#ECF0F1;" d="M418.4,335.993c1.726,0,3.125,1.402,3.125,3.127c0,1.727-1.399,3.125-3.125,3.125
		s-3.127-1.398-3.127-3.125C415.272,337.394,416.674,335.993,418.4,335.993z"/>
</g>
<g>
	<path style="fill:#FFFFFF;" d="M375.029,202.255l4.745-1.242l-0.786-2.224l-4.855,0.962
		C373.867,200.264,373.988,201.359,375.029,202.255L375.029,202.255z"/>
	<path style="fill:#FFFFFF;" d="M369.698,219.717l6.046-2.301l-1.284-3.64l-5.973,1.807
		C368.222,216.546,368.272,218.035,369.698,219.717L369.698,219.717z"/>
	<path style="fill:#FFFFFF;" d="M377.855,235.55l5.27-1.76l-1.247-3.871l-5.152,1.18
		C376.515,232.044,376.581,233.692,377.855,235.55L377.855,235.55z"/>
	<path style="fill:#FFFFFF;" d="M381.184,248.814l3.788-1.06l1.222,4.683l-4.501,1.081
		C381.694,253.519,378.903,250.444,381.184,248.814z"/>
</g>
<path style="fill:#FFDEB0;" d="M228.913,151.317l-27.974-0.121l-0.543-40.733l27.15,1.376c1.816-3.871,14.034-12.161,17.257-13.308
	l16.902-1.975v8.59l28.277-1.47l28.816,5.063c1.689-0.044,2.999,7.591-5.781,7.153l-22.931-1.142l-14.101,2.658l20.025,0.086
	l27.222,4.161c3.059,0.464,1.258,8.242-6.516,8.441l-20.153-2.065l-20.37,2.116l20.993,1.174l21.769,3.374
	c3.856,0.598,3.287,8.31-4.404,7.678l-17.823-1.464l-20.548,2.776l18.002,1.511l18.65,5.096c1.46,0.398,1.994,6.86-8.298,5.69
	l-11.947-1.357C277.322,155.953,240.464,162.631,228.913,151.317z"/>
<path style="fill:#F0B97D;" d="M228.913,151.317l-27.974-0.121l-0.02-1.499l28.209,0.315c12.381,11.769,47.597,5.429,63.608,4.05
	c0,0,11.099,1.884,16.118,1.469c5.731-0.818,4.543-4.947,3.977-5.24c1.46,0.398,1.994,6.86-8.298,5.69l-11.947-1.357
	C277.322,155.953,240.464,162.631,228.913,151.317L228.913,151.317z"/>
<path style="fill:#0E7886;" d="M200.36,107.349l0.55,47.726l-180.34,0.244c8.631-20.153,19.774-38.969,33.032-56.066L200.36,107.349
	z"/>
<path style="fill:#FFFFFF;" d="M208.87,108.724l0.74,44.81l-8.671,0.045l-0.741-44.813L208.87,108.724L208.87,108.724z"/>
<path style="fill:#ECF0F1;" d="M191.246,144.781c0.025,2.465-1.904,4.479-4.303,4.505c-2.4,0.026-4.366-1.952-4.388-4.414
	c-0.024-2.465,1.904-4.482,4.304-4.505C189.258,140.342,191.224,142.318,191.246,144.781z"/>
<g>
	<path style="fill:#FFFFFF;" d="M313.34,108.514l5.342,0.585c0.5,1.149,0.488,1.978,0.155,2.612l-6.081-0.35L313.34,108.514z"/>
	<path style="fill:#FFFFFF;" d="M317.941,121.515l5.341,0.585c0.5,1.151,0.487,1.979,0.156,2.613l-6.081-0.35L317.941,121.515z"/>
	<path style="fill:#FFFFFF;" d="M313.924,134.739l5.342,0.586c0.5,1.149,0.488,1.978,0.155,2.612l-6.081-0.35L313.924,134.739
		L313.924,134.739z"/>
	<path style="fill:#FFFFFF;" d="M307.18,149.384l5.342,1.154c0.5,1.201,0.488,2.03,0.155,2.627l-6.081-0.998L307.18,149.384
		L307.18,149.384z"/>
</g>
<g>
</g>
<g>
</g>
<g>
</g>
<g>
</g>
<g>
</g>
<g>
</g>
<g>
</g>
<g>
</g>
<g>
</g>
<g>
</g>
<g>
</g>
<g>
</g>
<g>
</g>
<g>
</g>
<g>
</g>
</svg>
