<svg xmlns="http://www.w3.org/2000/svg" viewBox="0 0 1440 319"><path fill="#5104f5" fill-opacity="1" d="M0,256L30,240C60,224,120,192,180,186.7C240,181,300,203,360,224C420,245,480,267,540,277.3C600,288,660,288,720,250.7C780,213,840,139,900,106.7C960,75,1020,85,1080,80C1140,75,1200,53,1260,48C1320,43,1380,53,1410,58.7L1440,64L1440,0L1410,0C1380,0,1320,0,1260,0C1200,0,1140,0,1080,0C1020,0,960,0,900,0C840,0,780,0,720,0C660,0,600,0,540,0C480,0,420,0,360,0C300,0,240,0,180,0C120,0,60,0,30,0L0,0Z"></path></svg>